<?xml version="1.0" encoding="UTF-8" standalone="no"?>
<!DOCTYPE svg PUBLIC "-//W3C//DTD SVG 1.1//EN" "http://www.w3.org/Graphics/SVG/1.1/DTD/svg11.dtd">
<svg width="100%" height="100%" viewBox="0 0 720 720" version="1.1" xmlns="http://www.w3.org/2000/svg" xmlns:xlink="http://www.w3.org/1999/xlink" xml:space="preserve" xmlns:serif="http://www.serif.com/" style="fill-rule:evenodd;clip-rule:evenodd;stroke-linejoin:round;stroke-miterlimit:2;">
    <g id="Artboard1" transform="matrix(0.947463,0,0,0.947463,-194.48,-163.625)">
        <rect x="205.264" y="172.698" width="759.924" height="759.924" style="fill:none;"/>
        <g transform="matrix(1.05545,0,0,1.05545,37.7109,-20.128)">
            <path d="M297.821,802.817C296.127,802.637 302.136,790.687 303.385,790.95L350.994,801.709C382.278,806.494 382.961,790.228 371.982,750.576C357.254,697.381 345.242,676.332 396.553,674.664C426.875,673.678 428.131,650.588 414.975,614.251C400.844,577.319 397.617,545.489 418.915,544.463C421.142,544.355 441.32,552.563 452.481,556.737C443.295,585.096 470.771,642.293 492.083,674.226C510.609,701.985 528.239,736.274 543.282,767.942C546.353,720.246 497.015,660.444 552.569,656.457C636.564,656.457 557.05,569.706 575.787,536.756C577.017,534.593 595.594,540.945 605.087,544.041C600.211,603.976 708.948,714.794 692.828,778.367C691.025,785.478 719.544,806.456 739.881,811.88C741.042,812.19 731.423,818.495 729.649,817.952C678.046,802.161 655.187,791.105 638.648,825.83C637.351,828.554 627.858,803.052 627.322,801.422C626.216,798.063 638.932,777.422 652.061,770.18C678.158,714.587 651.652,689.186 622.953,631.074C625.426,660.006 645.485,685.697 595.499,689.738C509.697,691.586 629.02,815.867 555.209,819.69C549.941,819.963 513.197,808.16 513.981,804.829C530.994,732.57 482.614,697.548 441.757,611.287C465.031,680.82 473.208,711.114 428.611,710.047C400.742,709.38 390.611,727.787 404.332,763.922C418.808,802.047 414.529,821.286 434.65,801.993C435.716,800.971 447.37,828.544 446.601,830.333C433.614,860.53 336.803,806.953 297.821,802.817Z"/>
        </g>
        <g transform="matrix(1.05545,0,0,1.05545,37.7109,-20.128)">
            <path d="M301.655,245.872L418.835,245.872L418.835,264.166C379.394,265.195 389.75,276.397 394.715,296.441L439.742,442.143L508.733,250.926L533.231,250.926L602.565,442.143L646.958,301.436C655.959,273.237 649.845,267.641 615.878,261.796L615.878,245.872L715.182,245.872L715.489,261.823C693.34,264.752 677.693,277.767 669.709,302.674L601.844,510.705L578.971,510.705L507.437,316.56L436.194,510.705L413.887,510.705L350.906,321.347C333.418,273.076 334.853,269.027 301.655,263.883L301.655,245.872Z"/>
        </g>
    </g>
</svg>
